<svg xmlns:dc="http://purl.org/dc/elements/1.1/" xmlns:cc="http://creativecommons.org/ns#" xmlns:rdf="http://www.w3.org/1999/02/22-rdf-syntax-ns#" xmlns:svg="http://www.w3.org/2000/svg" xmlns="http://www.w3.org/2000/svg" xmlns:xlink="http://www.w3.org/1999/xlink" id="svg738084" version="1.1" viewBox="272.67 322.91 478.67 122.18">
  <metadata id="metadata738090">
    <rdf:rdf>
      <cc:work rdf:about="">
        <dc:format>image/svg+xml</dc:format>
        <dc:type rdf:resource="http://purl.org/dc/dcmitype/StillImage"/>
      </cc:work>
    </rdf:rdf>
  </metadata>
  <defs id="defs738088"/>
  <linearGradient spreadMethod="pad" y2="30%" x2="-10%" y1="120%" x1="30%" id="3d_gradient2-logo-4dcb0524-0c53-465a-a82a-9db0d33a4ad5">
    <stop id="stop738065" stop-opacity="1" stop-color="#ffffff" offset="0%"/>
    <stop id="stop738067" stop-opacity="1" stop-color="#000000" offset="100%"/>
  </linearGradient>
  <linearGradient gradientTransform="rotate(-30)" spreadMethod="pad" y2="30%" x2="-10%" y1="120%" x1="30%" id="3d_gradient3-logo-4dcb0524-0c53-465a-a82a-9db0d33a4ad5">
    <stop id="stop738070" stop-opacity="1" stop-color="#ffffff" offset="0%"/>
    <stop id="stop738072" stop-opacity="1" stop-color="#cccccc" offset="50%"/>
    <stop id="stop738074" stop-opacity="1" stop-color="#000000" offset="100%"/>
  </linearGradient>
  <g id="logo-group">
    <image xlink:href="" id="container" x="272" y="144" width="480" height="480" transform="translate(0 0)" style="display: none;"/>
    <g id="logo-center" transform="translate(5.684341886080802e-14 0)">
      <image xlink:href="" id="icon_container" x="0" y="0" style="display: none;"/>
      <g id="slogan" style="font-style:normal;font-weight:600;font-size:32px;line-height:1;font-family:Raleway;font-variant-ligatures:none;text-align:center;text-anchor:middle" transform="translate(0 0)">
        <path id="path738092" style="font-style:normal;font-weight:600;font-size:32px;line-height:1;font-family:Raleway;font-variant-ligatures:none;text-align:center;text-anchor:middle" d="m 424.85475,0.32 q -1.92,0 -3.488,-0.896 -1.536,-0.928 -2.432,-2.464 V 0 h -3.104 v -23.36 h 3.52 v 9.792 q 0.992,-1.6 2.464,-2.528 1.504,-0.928 3.52,-0.928 1.664,0 3.04,0.736 1.376,0.704 2.336,1.92 0.992,1.184 1.504,2.784 0.544,1.568 0.544,3.296 0,1.792 -0.608,3.36 -0.608,1.568 -1.664,2.752 -1.056,1.152 -2.528,1.824 -1.44,0.672 -3.104,0.672 z m -0.928,-3.008 q 1.152,0 2.112,-0.448 0.96,-0.48 1.632,-1.248 0.704,-0.768 1.088,-1.76 0.384,-1.024 0.384,-2.144 0,-1.12 -0.384,-2.144 -0.352,-1.056 -1.024,-1.824 -0.64,-0.8 -1.568,-1.28 -0.896,-0.48 -1.984,-0.48 -1.632,0 -2.912,1.056 -1.248,1.056 -1.92,2.56 v 4.416 q 0.192,0.736 0.672,1.344 0.48,0.576 1.12,1.024 0.64,0.448 1.376,0.704 0.736,0.224 1.408,0.224 z" stroke-width="0" stroke-linejoin="miter" stroke-miterlimit="2" fill="#f8be9d" stroke="#f8be9d" transform="translate(-5.684341886080802e-14 362.89) translate(379.20312499999994 44.480000000000004) scale(1.25) translate(-415.83075 23.36)"/>
        <path id="path738094" style="font-style:normal;font-weight:600;font-size:32px;line-height:1;font-family:Raleway;font-variant-ligatures:none;text-align:center;text-anchor:middle" d="m 435.12375,0 q 0,-1.344 0.224,-2.496 0.224,-1.152 0.8,-2.144 0.576,-1.024 1.568,-1.92 0.992,-0.928 2.56,-1.792 1.12,-0.608 2.112,-1.12 0.992,-0.512 1.728,-0.992 0.768,-0.512 1.216,-1.056 0.448,-0.576 0.448,-1.312 0,-1.024 -0.896,-1.824 -0.864,-0.832 -2.528,-0.832 -0.864,0 -1.6,0.256 -0.704,0.224 -1.312,0.608 -0.576,0.352 -1.024,0.8 -0.448,0.448 -0.8,0.864 l -2.24,-2.592 q 0.32,-0.352 0.992,-0.864 0.704,-0.544 1.664,-1.024 0.992,-0.48 2.24,-0.8 1.248,-0.352 2.72,-0.352 1.536,0 2.752,0.416 1.248,0.384 2.08,1.088 0.864,0.704 1.312,1.696 0.448,0.96 0.448,2.08 0,1.184 -0.48,2.112 -0.48,0.928 -1.184,1.632 -0.704,0.704 -1.536,1.216 -0.832,0.48 -1.536,0.832 -0.672,0.32 -1.536,0.768 -0.832,0.416 -1.632,0.992 -0.8,0.544 -1.44,1.184 -0.64,0.64 -0.896,1.408 h 10.592 V 0 Z" stroke-width="0" stroke-linejoin="miter" stroke-miterlimit="2" fill="#f8be9d" stroke="#f8be9d" transform="translate(-5.684341886080802e-14 362.89) translate(405.8193749999999 50.44) scale(1.25) translate(-435.12375 18.592)"/>
        <path id="path738096" style="font-style:normal;font-weight:600;font-size:32px;line-height:1;font-family:Raleway;font-variant-ligatures:none;text-align:center;text-anchor:middle" d="m 462.54225,0.32 q -1.92,0 -3.488,-0.896 -1.536,-0.928 -2.432,-2.464 V 0 h -3.104 v -23.36 h 3.52 v 9.792 q 0.992,-1.6 2.464,-2.528 1.504,-0.928 3.52,-0.928 1.664,0 3.04,0.736 1.376,0.704 2.336,1.92 0.992,1.184 1.504,2.784 0.544,1.568 0.544,3.296 0,1.792 -0.608,3.36 -0.608,1.568 -1.664,2.752 -1.056,1.152 -2.528,1.824 -1.44,0.672 -3.104,0.672 z m -0.928,-3.008 q 1.152,0 2.112,-0.448 0.96,-0.48 1.632,-1.248 0.704,-0.768 1.088,-1.76 0.384,-1.024 0.384,-2.144 0,-1.12 -0.384,-2.144 -0.352,-1.056 -1.024,-1.824 -0.64,-0.8 -1.568,-1.28 -0.896,-0.48 -1.984,-0.48 -1.632,0 -2.912,1.056 -1.248,1.056 -1.92,2.56 v 4.416 q 0.192,0.736 0.672,1.344 0.48,0.576 1.12,1.024 0.64,0.448 1.376,0.704 0.736,0.224 1.408,0.224 z" stroke-width="0" stroke-linejoin="miter" stroke-miterlimit="2" fill="#f8be9d" stroke="#f8be9d" transform="translate(-5.684341886080802e-14 362.89) translate(431.3125 44.480000000000004) scale(1.25) translate(-453.51825 23.36)"/>
        <path id="path738098" style="font-style:normal;font-weight:600;font-size:32px;line-height:1;font-family:Raleway;font-variant-ligatures:none;text-align:center;text-anchor:middle" d="m 491.02225,0.32 q -2.016,0 -3.552,-0.96 -1.536,-0.96 -2.432,-2.496 v 9.952 h -3.52 v -23.552 h 3.104 v 3.008 q 0.96,-1.504 2.464,-2.4 1.536,-0.896 3.456,-0.896 1.728,0 3.168,0.704 1.44,0.704 2.496,1.888 1.056,1.184 1.632,2.752 0.608,1.568 0.608,3.296 0,1.824 -0.544,3.424 -0.544,1.568 -1.536,2.752 -0.992,1.152 -2.368,1.856 -1.344,0.672 -2.976,0.672 z m -1.152,-3.008 q 1.12,0 2.016,-0.48 0.928,-0.48 1.568,-1.28 0.672,-0.8 1.024,-1.824 0.352,-1.024 0.352,-2.112 0,-1.152 -0.416,-2.176 -0.384,-1.024 -1.088,-1.792 -0.672,-0.768 -1.632,-1.216 -0.96,-0.448 -2.08,-0.448 -0.672,0 -1.408,0.256 -0.736,0.256 -1.376,0.704 -0.64,0.448 -1.12,1.056 -0.48,0.576 -0.672,1.28 v 4.384 q 0.32,0.768 0.832,1.44 0.512,0.672 1.12,1.152 0.64,0.48 1.376,0.768 0.736,0.288 1.504,0.288 z" stroke-width="0" stroke-linejoin="miter" stroke-miterlimit="2" fill="#f8be9d" stroke="#f8be9d" transform="translate(-5.684341886080802e-14 362.89) translate(468.8125 52.4) scale(1.25) translate(-481.51825 17.024)"/>
        <path id="path738100" style="font-style:normal;font-weight:600;font-size:32px;line-height:1;font-family:Raleway;font-variant-ligatures:none;text-align:center;text-anchor:middle" d="m 501.67525,-23.36 h 3.52 v 18.528 q 0,0.928 0.48,1.472 0.48,0.512 1.344,0.512 0.352,0 0.8,-0.128 0.48,-0.128 0.896,-0.288 l 0.512,2.752 q -0.768,0.352 -1.824,0.544 -1.056,0.224 -1.888,0.224 -1.824,0 -2.848,-0.992 -0.992,-0.992 -0.992,-2.816 z" stroke-width="0" stroke-linejoin="miter" stroke-miterlimit="2" fill="#f8be9d" stroke="#f8be9d" transform="translate(-5.684341886080802e-14 362.89) translate(496.50875 44.480000000000004) scale(1.25) translate(-501.67525 23.36)"/>
        <path id="path738102" style="font-style:normal;font-weight:600;font-size:32px;line-height:1;font-family:Raleway;font-variant-ligatures:none;text-align:center;text-anchor:middle" d="m 515.71625,0.32 q -1.216,0 -2.272,-0.384 -1.024,-0.416 -1.792,-1.12 -0.736,-0.704 -1.184,-1.664 -0.416,-0.96 -0.416,-2.08 0,-1.184 0.512,-2.144 0.512,-0.96 1.44,-1.664 0.96,-0.704 2.24,-1.088 1.312,-0.384 2.88,-0.384 1.184,0 2.336,0.224 1.152,0.192 2.08,0.544 v -1.152 q 0,-1.856 -1.056,-2.88 -1.056,-1.056 -3.04,-1.056 -1.344,0 -2.656,0.512 -1.28,0.48 -2.656,1.408 l -1.088,-2.24 q 3.232,-2.176 6.72,-2.176 3.456,0 5.376,1.76 1.92,1.76 1.92,5.056 v 6.048 q 0,1.12 0.928,1.152 V 0 q -0.512,0.096 -0.896,0.128 -0.352,0.032 -0.704,0.032 -1.024,0 -1.6,-0.512 -0.544,-0.512 -0.672,-1.312 l -0.096,-1.056 q -1.12,1.472 -2.784,2.272 -1.632,0.768 -3.52,0.768 z m 0.96,-2.592 q 1.28,0 2.4,-0.448 1.152,-0.48 1.792,-1.312 0.672,-0.576 0.672,-1.216 v -2.208 q -0.896,-0.352 -1.92,-0.544 -0.992,-0.192 -1.952,-0.192 -1.888,0 -3.104,0.832 -1.184,0.8 -1.184,2.144 0,1.248 0.928,2.112 0.928,0.832 2.368,0.832 z" stroke-width="0" stroke-linejoin="miter" stroke-miterlimit="2" fill="#f8be9d" stroke="#f8be9d" transform="translate(-5.684341886080802e-14 362.89) translate(509.48 52.4) scale(1.25) translate(-510.05225 17.024)"/>
        <path id="path738104" style="font-style:normal;font-weight:600;font-size:32px;line-height:1;font-family:Raleway;font-variant-ligatures:none;text-align:center;text-anchor:middle" d="m 538.51775,-0.864 q -0.672,0.32 -1.856,0.736 -1.184,0.384 -2.528,0.384 -0.832,0 -1.568,-0.224 -0.736,-0.224 -1.312,-0.672 -0.544,-0.448 -0.864,-1.152 -0.32,-0.736 -0.32,-1.76 v -10.464 h -2.208 v -2.72 h 2.208 v -5.504 h 3.52 v 5.504 h 3.648 v 2.72 h -3.648 v 9.344 q 0.064,0.896 0.544,1.312 0.512,0.384 1.248,0.384 0.736,0 1.408,-0.256 0.672,-0.256 0.992,-0.416 z" stroke-width="0" stroke-linejoin="miter" stroke-miterlimit="2" fill="#f8be9d" stroke="#f8be9d" transform="translate(-5.684341886080802e-14 362.89) translate(534.241875 45.88) scale(1.25) translate(-527.86175 22.24)"/>
        <path id="path738106" style="font-style:normal;font-weight:600;font-size:32px;line-height:1;font-family:Raleway;font-variant-ligatures:none;text-align:center;text-anchor:middle" d="m 541.91575,0 v -13.6 h -2.24 v -2.72 h 2.24 v -0.672 q 0,-3.104 1.44,-4.896 1.44,-1.792 3.904,-1.792 1.024,0 2.016,0.288 0.992,0.256 1.888,0.736 l -0.768,2.624 q -0.48,-0.288 -1.152,-0.48 -0.64,-0.192 -1.248,-0.192 -1.248,0 -1.92,0.928 -0.64,0.928 -0.64,2.688 v 0.768 h 4.288 v 2.72 h -4.288 V 0 Z" stroke-width="0" stroke-linejoin="miter" stroke-miterlimit="2" fill="#f8be9d" stroke="#f8be9d" transform="translate(-5.684341886080802e-14 362.89) translate(551.5093750000001 44.08) scale(1.25) translate(-539.67575 23.68)"/>
        <path id="path738108" style="font-style:normal;font-weight:600;font-size:32px;line-height:1;font-family:Raleway;font-variant-ligatures:none;text-align:center;text-anchor:middle" d="m 559.03825,0.32 q -1.984,0 -3.584,-0.704 -1.568,-0.704 -2.688,-1.888 -1.12,-1.184 -1.728,-2.752 -0.608,-1.6 -0.608,-3.328 0,-1.728 0.608,-3.296 0.608,-1.6 1.728,-2.784 1.152,-1.184 2.72,-1.888 1.6,-0.704 3.552,-0.704 1.952,0 3.52,0.704 1.6,0.704 2.72,1.888 1.152,1.184 1.76,2.784 0.608,1.568 0.608,3.296 0,1.728 -0.608,3.328 -0.608,1.568 -1.76,2.752 -1.12,1.184 -2.72,1.888 -1.568,0.704 -3.52,0.704 z m -4.992,-8.64 q 0,1.216 0.384,2.24 0.384,1.024 1.056,1.792 0.672,0.736 1.568,1.184 0.928,0.416 1.984,0.416 1.056,0 1.952,-0.416 0.928,-0.448 1.6,-1.216 0.672,-0.768 1.056,-1.792 0.384,-1.024 0.384,-2.24 0,-1.184 -0.384,-2.208 -0.384,-1.056 -1.056,-1.824 -0.672,-0.768 -1.6,-1.184 -0.896,-0.448 -1.952,-0.448 -1.024,0 -1.952,0.448 -0.896,0.448 -1.568,1.216 -0.672,0.768 -1.088,1.824 -0.384,1.024 -0.384,2.208 z" stroke-width="0" stroke-linejoin="miter" stroke-miterlimit="2" fill="#f8be9d" stroke="#f8be9d" transform="translate(-5.684341886080802e-14 362.89) translate(567.4525000000002 52.4) scale(1.25) translate(-550.43025 17.024)"/>
        <path id="path738110" style="font-style:normal;font-weight:600;font-size:32px;line-height:1;font-family:Raleway;font-variant-ligatures:none;text-align:center;text-anchor:middle" d="m 580.17625,-13.696 q -2.048,0.064 -3.648,0.96 -1.568,0.864 -2.24,2.496 V 0 h -3.52 v -16.736 h 3.264 v 3.744 q 0.864,-1.728 2.24,-2.752 1.408,-1.056 3.008,-1.152 0.32,0 0.512,0 0.224,0 0.384,0.032 z" stroke-width="0" stroke-linejoin="miter" stroke-miterlimit="2" fill="#f8be9d" stroke="#f8be9d" transform="translate(-5.684341886080802e-14 362.89) translate(595.3750000000001 52.56) scale(1.25) translate(-570.76825 16.896)"/>
        <path id="path738112" style="font-style:normal;font-weight:600;font-size:32px;line-height:1;font-family:Raleway;font-variant-ligatures:none;text-align:center;text-anchor:middle" d="m 608.30575,0 h -3.52 v -9.376 q 0,-2.336 -0.768,-3.424 -0.768,-1.088 -2.24,-1.088 -1.504,0 -2.752,1.12 -1.216,1.088 -1.76,2.848 V 0 h -3.52 v -9.376 q 0,-2.368 -0.768,-3.424 -0.768,-1.088 -2.208,-1.088 -1.504,0 -2.752,1.088 -1.248,1.088 -1.792,2.848 V 0 h -3.52 v -16.736 h 3.2 v 3.36 q 0.992,-1.76 2.592,-2.688 1.632,-0.96 3.712,-0.96 2.08,0 3.264,1.088 1.216,1.088 1.504,2.72 1.056,-1.856 2.656,-2.816 1.6,-0.992 3.648,-0.992 1.472,0 2.432,0.576 0.992,0.544 1.568,1.472 0.576,0.928 0.8,2.176 0.224,1.216 0.224,2.592 z" stroke-width="0" stroke-linejoin="miter" stroke-miterlimit="2" fill="#f8be9d" stroke="#f8be9d" transform="translate(-5.684341886080802e-14 362.89) translate(612.7968750000001 52.4) scale(1.25) translate(-582.70575 17.024)"/>
      </g>
      <g id="title" style="font-style:normal;font-weight:normal;font-size:72px;line-height:1;font-family:'Brandmark Sans 2 Color';font-variant-ligatures:normal;text-align:center;text-anchor:middle" transform="translate(0 0)">
        <g id="path738115" aria-label="^N" transform="translate(0 285.63599999999997) translate(272.66961249999997 37.904) scale(1.25) translate(-322.55563 50.4)"> <polygon class="c1" points="88.22705,74.79785 121.854,125.20215 110.26123,125.20215 88.65967,92.36719 88.65967,125.20215 78.146,125.20215 78.146,74.79785 " transform="translate(244.40963 -125.19785)" stroke-width="0" stroke-linejoin="miter" stroke-miterlimit="2" fill="#f8be9d" stroke="#f8be9d"/> <path class="c3" d="M121.854,74.79785v38.95508c-7.05664-4.32031-9.86426-12.60107-10.44043-14.61719V74.79785H121.854z" transform="translate(244.40963 -125.19785)" stroke-width="0" stroke-linejoin="miter" stroke-miterlimit="2" fill="#58c4bc" stroke="#58c4bc"/> </g>
        <g id="path738117" aria-label="E" transform="translate(0 285.63599999999997) translate(339.64226249999996 38.084) scale(1.25) translate(-376.13375 50.256)"> <path class="c1" d="M118.82959,115.9856v9.2168H81.17041V74.79761h36.86719v9.2168H92.40381v31.89893L118.82959,115.9856z M99.46045,104.60864l1.2959-9.21729h14.83301v9.21729H99.46045z" transform="translate(294.96334 -125.05361)" stroke-width="0" stroke-linejoin="miter" stroke-miterlimit="2" fill="#f8be9d" stroke="#f8be9d"/> </g>
        <g id="path738119" aria-label="X" transform="translate(0 285.63599999999997) translate(391.8127249999999 37.904) scale(1.25) translate(-417.87012 50.4)"> <path class="c1" d="M124.01416,125.20215h-13.46484l-10.72949-16.84961l-10.72852,16.84961H75.98584L92.979,99.42383 L77.13818,74.79785h13.10449l9.64941,15.48145l9.64844-15.48145h13.17773l-15.62598,24.0498L124.01416,125.20215z" transform="translate(341.88428 -125.19785)" stroke-width="0" stroke-linejoin="miter" stroke-miterlimit="2" fill="#f8be9d" stroke="#f8be9d"/> </g>
        <g id="path738121" aria-label="T" transform="translate(0 285.63599999999997) translate(454.21928749999995 37.814) scale(1.25) translate(-467.79537 50.472)"> <path class="c1" d="M120.19775,74.79785v9.50488H79.80225v-9.50488H120.19775z M94.2749,89.99121 c5.25684-4.17627,11.2334,0,11.2334,0v35.21094H94.20361V89.99121H94.2749z" transform="translate(387.99312 -125.26985)" stroke-width="0" stroke-linejoin="miter" stroke-miterlimit="2" fill="#f8be9d" stroke="#f8be9d"/> </g>
        <g id="path738123" aria-label="C" transform="translate(0 285.63599999999997) translate(507.44584999999995 37.274) scale(1.25) translate(-510.37662 50.904)"> <path class="c1" d="M102.19629,115.8418c4.89648,0,9.57617-2.44824,12.52832-6.33691l10.36914,4.6084 c-4.75195,7.05664-13.10449,11.59277-23.04199,11.59277c-15.55273,0-27.29004-11.08887-27.29004-25.84961 c0-14.5459,11.7373-25.5625,27.29004-25.5625c10.00879,0,18.43359,4.53613,23.18652,11.59277l-10.44141,4.68066 c-2.95215-3.88867-7.63281-6.33691-12.60059-6.33691c-8.4248,0-16.12988,6.9126-16.12988,15.76953 c0,8.78516,7.77734,15.91406,16.05762,15.91406L102.19629,115.8418z" transform="translate(435.6149 -125.19795)" stroke-width="0" stroke-linejoin="miter" stroke-miterlimit="2" fill="#f8be9d" stroke="#f8be9d"/> </g>
        <g id="path738125" aria-label="A" transform="translate(0 285.63599999999997) translate(573.48055 37.904) scale(1.25) translate(-563.20438 50.4)"> <polygon class="c1" points="106.19287,74.79785 94.23975,74.79785 73.78955,125.20215 85.31104,125.20215 92.0791,106.84082 92.0791,106.84082 99.85596,86.74268 114.18506,125.20215 126.21045,125.20215 " transform="translate(489.41483 -125.19785)" stroke-width="0" stroke-linejoin="miter" stroke-miterlimit="2" fill="#f8be9d" stroke="#f8be9d"/> </g>
        <g id="path738127" aria-label="R" transform="translate(0 285.63599999999997) translate(645.9389749999999 37.814) scale(1.25) translate(-621.17112 50.472)"> <path class="c1" d="M120.12549,125.20215h-12.74512l-8.92871-16.48926H91.1792v16.48926H79.87451v-50.4043h20.59375 c12.09668,0,19.00977,5.40088,19.00977,16.48975c0,8.49658-3.60059,13.8252-10.15332,16.12939L120.12549,125.20215z M108.89307,91.71973c0-5.54492-3.24023-7.63281-9.07324-7.63281h-8.71289v15.40918h8.71289 C105.58057,99.49609,108.89307,97.33594,108.89307,91.71973z" transform="translate(541.29661 -125.26985)" stroke-width="0" stroke-linejoin="miter" stroke-miterlimit="2" fill="#f8be9d" stroke="#f8be9d"/> </g>
        <g id="path738129" aria-label="T" transform="translate(0 285.63599999999997) translate(700.8403874999999 37.814) scale(1.25) translate(-665.09225 50.472)"> <path class="c1" d="M120.19775,74.79785v9.50488H79.80225v-9.50488H120.19775z M94.2749,89.99121 c5.25684-4.17627,11.2334,0,11.2334,0v35.21094H94.20361V89.99121H94.2749z" transform="translate(585.29 -125.26985)" stroke-width="0" stroke-linejoin="miter" stroke-miterlimit="2" fill="#f8be9d" stroke="#f8be9d"/> </g>
              </g>
      <image xlink:href="" id="icon" x="0" y="0" style="display: none;"/>
    </g>
  </g>
</svg>